<?xml version="1.0" encoding="UTF-8"?>
<svg xmlns="http://www.w3.org/2000/svg" xmlns:xlink="http://www.w3.org/1999/xlink" width="24pt" height="24pt" viewBox="0 0 24 24" version="1.1">
<g id="surface1">
<path style=" stroke:none;fill-rule:nonzero;fill:rgb(100%,100%,100%);fill-opacity:1;" d="M 1.882812 1.433594 C 1.703125 1.445312 1.535156 1.570312 1.46875 1.738281 C 1.40625 1.910156 1.441406 2.113281 1.566406 2.242188 L 7.066406 8.160156 L 4.800781 8.160156 C 4.625 8.15625 4.464844 8.25 4.378906 8.398438 C 4.292969 8.546875 4.292969 8.734375 4.378906 8.882812 C 4.464844 9.03125 4.625 9.121094 4.800781 9.121094 L 8.160156 9.121094 C 8.425781 9.121094 8.640625 8.90625 8.640625 8.640625 L 8.640625 5.28125 C 8.644531 5.140625 8.585938 5.007812 8.484375 4.914062 C 8.382812 4.820312 8.246094 4.777344 8.109375 4.792969 C 7.859375 4.820312 7.675781 5.03125 7.679688 5.28125 L 7.679688 7.410156 L 2.273438 1.589844 C 2.175781 1.480469 2.027344 1.421875 1.882812 1.433594 Z M 22.050781 1.433594 C 21.925781 1.441406 21.808594 1.5 21.726562 1.589844 L 16.320312 7.410156 L 16.320312 5.28125 C 16.324219 5.140625 16.265625 5.007812 16.164062 4.914062 C 16.0625 4.820312 15.925781 4.777344 15.789062 4.792969 C 15.539062 4.820312 15.355469 5.03125 15.359375 5.28125 L 15.359375 8.640625 C 15.359375 8.90625 15.574219 9.121094 15.839844 9.121094 L 19.199219 9.121094 C 19.375 9.121094 19.535156 9.03125 19.621094 8.882812 C 19.707031 8.734375 19.707031 8.546875 19.621094 8.398438 C 19.535156 8.25 19.375 8.15625 19.199219 8.160156 L 16.933594 8.160156 L 22.433594 2.242188 C 22.566406 2.101562 22.605469 1.882812 22.523438 1.710938 C 22.441406 1.535156 22.242188 1.417969 22.050781 1.433594 Z M 12 8.640625 C 10.148438 8.640625 8.640625 10.148438 8.640625 12 C 8.640625 13.851562 10.148438 15.359375 12 15.359375 C 13.851562 15.359375 15.359375 13.851562 15.359375 12 C 15.359375 10.148438 13.851562 8.640625 12 8.640625 Z M 12 9.601562 C 13.332031 9.601562 14.398438 10.667969 14.398438 12 C 14.398438 13.332031 13.332031 14.398438 12 14.398438 C 10.667969 14.398438 9.601562 13.332031 9.601562 12 C 9.601562 10.667969 10.667969 9.601562 12 9.601562 Z M 4.753906 14.878906 C 4.488281 14.890625 4.285156 15.117188 4.296875 15.382812 C 4.308594 15.648438 4.535156 15.851562 4.800781 15.839844 L 7.058594 15.839844 L 1.566406 21.75 C 1.398438 21.933594 1.40625 22.261719 1.589844 22.433594 C 1.773438 22.601562 2.101562 22.585938 2.273438 22.402344 L 7.679688 16.582031 L 7.679688 18.71875 C 7.675781 18.894531 7.769531 19.054688 7.917969 19.140625 C 8.066406 19.230469 8.253906 19.230469 8.402344 19.140625 C 8.550781 19.054688 8.640625 18.894531 8.640625 18.71875 L 8.640625 15.359375 C 8.640625 15.09375 8.425781 14.878906 8.160156 14.878906 L 4.800781 14.878906 C 4.785156 14.878906 4.769531 14.878906 4.753906 14.878906 Z M 15.796875 14.878906 C 15.546875 14.902344 15.359375 15.113281 15.359375 15.359375 L 15.359375 18.71875 C 15.359375 18.894531 15.449219 19.054688 15.597656 19.140625 C 15.746094 19.230469 15.933594 19.230469 16.082031 19.140625 C 16.230469 19.054688 16.324219 18.894531 16.320312 18.71875 L 16.320312 16.582031 L 21.726562 22.402344 C 21.898438 22.585938 22.226562 22.601562 22.410156 22.433594 C 22.59375 22.261719 22.601562 21.933594 22.433594 21.75 L 16.941406 15.839844 L 19.199219 15.839844 C 19.375 15.84375 19.535156 15.75 19.621094 15.601562 C 19.707031 15.453125 19.707031 15.265625 19.621094 15.117188 C 19.535156 14.96875 19.375 14.878906 19.199219 14.878906 L 15.839844 14.878906 C 15.824219 14.878906 15.808594 14.878906 15.796875 14.878906 Z M 15.796875 14.878906 "/>
</g>
</svg>
