<?xml version="1.0" encoding="UTF-8"?>
<svg xmlns="http://www.w3.org/2000/svg" xmlns:xlink="http://www.w3.org/1999/xlink" width="24pt" height="24pt" viewBox="0 0 24 24" version="1.1">
<g id="surface1">
<path style=" stroke:none;fill-rule:nonzero;fill:rgb(100%,100%,100%);fill-opacity:1;" d="M 3.523438 2.640625 C 3.15625 2.679688 2.878906 2.988281 2.878906 3.359375 L 2.878906 5.039062 L 1.199219 5.039062 C 1.175781 5.039062 1.148438 5.039062 1.125 5.039062 C 0.757812 5.078125 0.476562 5.390625 0.480469 5.761719 L 0.480469 20.640625 C 0.480469 21.039062 0.800781 21.359375 1.199219 21.359375 L 22.800781 21.359375 C 23.199219 21.359375 23.519531 21.039062 23.519531 20.640625 L 23.519531 5.761719 C 23.519531 5.363281 23.199219 5.039062 22.800781 5.039062 L 21.121094 5.039062 L 21.121094 3.359375 C 21.121094 2.960938 20.796875 2.640625 20.398438 2.640625 C 17.496094 2.636719 14.484375 2.96875 12 4.65625 C 9.515625 2.96875 6.503906 2.636719 3.601562 2.640625 C 3.574219 2.640625 3.550781 2.640625 3.523438 2.640625 Z M 4.320312 4.109375 C 6.886719 4.164062 9.339844 4.539062 11.28125 5.886719 L 11.28125 19.078125 C 9.109375 17.863281 6.472656 17.585938 4.320312 17.542969 Z M 19.679688 4.109375 L 19.679688 17.542969 C 17.527344 17.585938 14.890625 17.863281 12.71875 19.078125 L 12.71875 5.886719 C 14.660156 4.539062 17.113281 4.164062 19.679688 4.109375 Z M 1.921875 6.480469 L 2.878906 6.480469 L 2.878906 18.238281 C 2.878906 18.636719 3.203125 18.960938 3.601562 18.960938 C 5.457031 18.960938 7.804688 19.152344 9.71875 19.921875 L 1.921875 19.921875 Z M 21.121094 6.480469 L 22.078125 6.480469 L 22.078125 19.921875 L 14.28125 19.921875 C 16.195312 19.152344 18.542969 18.960938 20.398438 18.960938 C 20.796875 18.960938 21.121094 18.636719 21.121094 18.238281 Z M 21.121094 6.480469 "/>
</g>
</svg>
