<?xml version="1.0" encoding="UTF-8"?>
<svg xmlns="http://www.w3.org/2000/svg" xmlns:xlink="http://www.w3.org/1999/xlink" width="24pt" height="24pt" viewBox="0 0 24 24" version="1.1">
<g id="surface1">
<path style=" stroke:none;fill-rule:nonzero;fill:rgb(100%,100%,100%);fill-opacity:1;" d="M 23.65625 12.195312 C 23.417969 12.101562 23.265625 11.902344 23.101562 11.714844 C 22.519531 11.050781 22.191406 10.210938 21.570312 9.574219 C 21.554688 9.539062 21.535156 9.5 21.515625 9.460938 C 21.316406 9.277344 21.28125 9.128906 21.539062 8.941406 C 21.746094 8.792969 21.882812 8.5625 21.871094 8.246094 C 21.628906 8.492188 21.398438 8.710938 21.105469 8.84375 C 21.035156 8.875 20.96875 8.945312 20.867188 8.898438 C 20.683594 8.808594 20.484375 8.816406 20.25 8.832031 C 20.421875 8.613281 20.59375 8.433594 20.636719 8.179688 C 20.648438 8.09375 20.65625 8.015625 20.578125 7.976562 C 20.5 7.933594 20.457031 8.011719 20.421875 8.0625 C 20.238281 8.355469 19.976562 8.5625 19.691406 8.746094 C 19.542969 8.84375 19.394531 8.972656 19.433594 9.164062 C 19.503906 9.480469 19.324219 9.46875 19.113281 9.453125 C 18.910156 9.433594 18.707031 9.421875 18.519531 9.527344 C 18.40625 9.589844 18.289062 9.6875 18.398438 9.820312 C 18.558594 10.019531 18.433594 10.078125 18.285156 10.167969 C 18.019531 10.320312 17.757812 10.414062 17.441406 10.367188 C 16.78125 10.277344 16.117188 10.273438 15.457031 10.304688 C 14.335938 10.359375 13.214844 10.433594 12.09375 10.5 C 12.078125 10.507812 12.058594 10.511719 12.042969 10.515625 C 11.804688 10.574219 11.5625 10.546875 11.320312 10.554688 C 10.296875 10.648438 9.273438 10.691406 8.246094 10.640625 C 7.953125 10.625 7.648438 10.671875 7.367188 10.558594 C 6.007812 9.992188 4.617188 9.621094 3.125 9.796875 C 3.054688 9.839844 2.980469 9.867188 2.894531 9.851562 C 2.742188 9.894531 2.589844 9.9375 2.433594 9.980469 C 2.433594 9.996094 2.429688 10.011719 2.425781 10.023438 C 2.414062 10.023438 2.402344 10.023438 2.394531 10.027344 C 2.367188 10.027344 2.34375 10.027344 2.316406 10.027344 C 2.3125 10.03125 2.304688 10.03125 2.296875 10.035156 C 2.207031 10.054688 2.117188 10.039062 2.03125 10.019531 C 2.03125 10.019531 2.027344 10.019531 2.027344 10.019531 C 1.988281 10.019531 1.949219 10.019531 1.914062 10.015625 C 1.875 10.019531 1.835938 10.023438 1.796875 10.027344 L 1.804688 10.050781 C 1.796875 10.050781 1.789062 10.050781 1.785156 10.054688 C 1.730469 10.0625 1.675781 10.074219 1.621094 10.082031 C 1.605469 10.089844 1.589844 10.097656 1.574219 10.105469 C 1.441406 10.160156 1.300781 10.195312 1.1875 10.28125 C 1.15625 10.308594 1.128906 10.335938 1.101562 10.375 C 1.066406 10.394531 1.03125 10.417969 0.992188 10.4375 C 0.941406 10.496094 0.890625 10.558594 0.839844 10.617188 C 0.519531 11.175781 0.492188 11.78125 0.554688 12.398438 C 0.644531 13.304688 0.839844 14.203125 0.84375 15.113281 C 0.84375 15.597656 1.011719 16.144531 0.550781 16.550781 C 0.492188 16.605469 0.492188 16.726562 0.464844 16.820312 C 0.367188 17.167969 0.457031 17.527344 0.402344 17.878906 C 0.414062 17.933594 0.40625 17.984375 0.375 18.03125 C 0.371094 18.039062 0.363281 18.046875 0.355469 18.054688 C 0.335938 18.289062 0.117188 18.417969 0.0429688 18.621094 C 0.179688 18.675781 0.257812 18.511719 0.402344 18.527344 C 0.429688 19.109375 0.582031 19.675781 0.59375 20.261719 C 0.609375 20.945312 0.539062 21.625 0.527344 22.308594 C 0.527344 22.457031 0.5 22.625 0.710938 22.671875 C 0.789062 22.691406 0.761719 22.765625 0.769531 22.816406 C 0.875 23.5 1.121094 23.742188 2.011719 23.714844 C 2.296875 23.707031 2.40625 23.53125 2.304688 23.261719 C 2.234375 23.070312 2.121094 22.902344 1.996094 22.746094 C 1.925781 22.65625 1.820312 22.597656 1.796875 22.46875 C 1.6875 21.835938 1.582031 21.199219 1.632812 20.550781 C 1.679688 19.933594 1.902344 19.386719 2.351562 18.925781 C 2.417969 19.128906 2.476562 19.320312 2.546875 19.503906 C 2.835938 20.3125 3.152344 21.113281 3.335938 21.957031 C 3.40625 22.265625 3.277344 22.671875 3.695312 22.847656 C 3.710938 22.851562 3.703125 22.902344 3.710938 22.929688 C 3.804688 23.234375 4.035156 23.363281 4.324219 23.421875 C 4.574219 23.476562 4.820312 23.4375 5.066406 23.40625 C 5.320312 23.273438 5.148438 23.109375 5.105469 22.953125 C 4.933594 22.660156 4.746094 22.382812 4.515625 22.136719 C 4.296875 21.90625 4.15625 21.640625 4.066406 21.34375 C 3.878906 20.722656 3.816406 20.085938 3.808594 19.4375 C 3.808594 19.316406 3.847656 19.300781 3.953125 19.308594 C 4.21875 19.335938 4.359375 19.214844 4.367188 18.9375 C 4.371094 18.832031 4.472656 18.808594 4.5625 18.800781 C 4.640625 18.789062 4.625 18.859375 4.625 18.898438 C 4.601562 19.253906 4.902344 19.066406 5.042969 19.125 C 5.164062 19.171875 5.199219 18.988281 5.222656 18.882812 C 5.246094 18.78125 5.257812 18.671875 5.257812 18.570312 C 5.253906 18.460938 5.285156 18.394531 5.378906 18.335938 C 5.652344 18.152344 5.898438 17.9375 6.125 17.703125 C 6.199219 17.625 6.257812 17.597656 6.367188 17.648438 C 7.195312 18.054688 8.082031 18.179688 8.996094 18.167969 C 9.570312 18.160156 10.144531 18.125 10.71875 18.101562 C 11.1875 18.035156 11.65625 18.019531 12.128906 18.105469 C 12.34375 18.082031 12.546875 18.144531 12.753906 18.179688 C 12.921875 18.207031 13.015625 18.277344 12.980469 18.484375 C 12.925781 18.835938 12.960938 19.195312 13.015625 19.542969 C 13.167969 20.492188 13.144531 21.4375 12.984375 22.382812 C 12.949219 22.59375 12.84375 22.816406 13.132812 22.949219 C 13.15625 22.960938 13.160156 23.03125 13.167969 23.078125 C 13.230469 23.703125 13.390625 23.878906 13.996094 23.976562 C 14.207031 24.011719 14.4375 24.035156 14.578125 23.839844 C 14.710938 23.652344 14.613281 23.449219 14.515625 23.273438 C 14.347656 22.960938 14.164062 22.664062 14.152344 22.289062 C 14.132812 21.78125 14.074219 21.273438 14.089844 20.765625 C 14.09375 20.691406 14.089844 20.605469 14.121094 20.539062 C 14.308594 20.125 14.503906 19.714844 14.699219 19.300781 C 14.8125 19.433594 14.855469 19.59375 14.890625 19.75 C 15.042969 20.371094 15.027344 21.007812 15.0625 21.636719 C 15.09375 22.183594 15.007812 22.730469 15.425781 23.226562 C 15.734375 23.59375 16.175781 23.863281 16.660156 23.730469 C 16.84375 23.679688 16.886719 23.578125 16.808594 23.410156 C 16.683594 23.148438 16.503906 22.921875 16.308594 22.710938 C 16.203125 22.59375 16.132812 22.472656 16.097656 22.3125 C 15.832031 21.039062 15.996094 19.796875 16.332031 18.558594 C 16.371094 18.417969 16.460938 18.421875 16.5625 18.394531 C 17.160156 18.230469 17.613281 17.886719 17.882812 17.328125 C 17.96875 17.152344 18.066406 16.996094 18.234375 16.894531 C 18.292969 16.8125 18.351562 16.734375 18.410156 16.65625 C 18.585938 16.28125 18.738281 15.902344 18.800781 15.492188 C 18.824219 15.34375 18.792969 15.167969 18.859375 15.042969 C 19.082031 14.617188 19.363281 14.230469 19.773438 13.953125 C 19.96875 13.820312 20.160156 13.730469 20.410156 13.835938 C 20.597656 13.914062 20.808594 13.921875 21.007812 13.890625 C 21.671875 13.789062 22.335938 13.730469 23.007812 13.789062 C 23.15625 13.804688 23.308594 13.761719 23.386719 13.625 C 23.453125 13.507812 23.558594 13.464844 23.667969 13.402344 C 23.925781 13.261719 24 13.011719 24 12.746094 C 24 12.503906 23.90625 12.296875 23.65625 12.195312 Z M 1.214844 16.695312 C 1.042969 16.476562 0.960938 16.265625 0.992188 16 C 1.105469 15.125 0.945312 14.261719 0.863281 13.394531 C 0.882812 13.371094 0.898438 13.347656 0.917969 13.324219 C 1.183594 14.425781 1.398438 15.53125 1.214844 16.695312 Z M 21.460938 10.992188 C 21.332031 10.992188 21.226562 10.886719 21.226562 10.757812 C 21.226562 10.628906 21.332031 10.523438 21.460938 10.523438 C 21.59375 10.523438 21.695312 10.628906 21.695312 10.757812 C 21.695312 10.886719 21.59375 10.992188 21.460938 10.992188 Z M 21.460938 10.992188 "/>
</g>
</svg>
