<svg fill="#FFFFFF" xmlns="http://www.w3.org/2000/svg" xmlns:xlink="http://www.w3.org/1999/xlink" viewBox="0 0 24 24" version="1.1" x="0px" y="0px"><title>55 -Farm- (Outline)</title><desc>Created with Sketch.</desc><g stroke="none" stroke-width="1" fill="none" fill-rule="evenodd"><g fill="#FFFFFF"><path d="M5,24 L13,24 C13.5522847,24 14,23.5522847 14,23 L14,14 C14,13.4477153 13.5522847,13 13,13 L5,13 C4.44771525,13 4,13.4477153 4,14 L4,23 C4,23.5522847 4.44771525,24 5,24 Z M6,15 L12,15 L12,22 L6,22 L6,15 Z"></path><path d="M17,24 L23,24 C23.5522847,24 24,23.5522847 24,23 L24,6 C24,5.44771525 23.5522847,5 23,5 L17,5 C16.4477153,5 16,5.44771525 16,6 L16,23 C16,23.5522847 16.4477153,24 17,24 Z M18,7 L22,7 L22,22 L18,22 L18,7 Z"></path><path d="M17,7 L23,7 C23.5522847,7 24,6.55228475 24,6 L24,4 C24,1.79071525 22.2092847,0 20,0 C17.7907153,0 16,1.79071525 16,4 L16,6 C16,6.55228475 16.4477153,7 17,7 Z M18,4 C18,2.89528475 18.8952847,2 20,2 C21.1047153,2 22,2.89528475 22,4 L22,5 L18,5 L18,4 Z"></path><path d="M2,22 L2,9 C2,5.13428475 5.13428475,2 9,2 C12.8657153,2 16,5.13428475 16,9 L16,22 L2,22 Z M17,24 C17.5522847,24 18,23.5522847 18,23 L18,9 C18,4.02971525 13.9702847,0 9,0 C4.02971525,0 0,4.02971525 0,9 L0,23 C0,23.5522847 0.44771525,24 1,24 L17,24 Z"></path><path d="M5,11 L13,11 C13.5522847,11 14,10.5522847 14,10 L14,6 C14,5.44771525 13.5522847,5 13,5 L5,5 C4.44771525,5 4,5.44771525 4,6 L4,10 C4,10.5522847 4.44771525,11 5,11 Z M6,7 L12,7 L12,9 L6,9 L6,7 Z"></path></g></g></svg>