<?xml version="1.0" encoding="UTF-8"?>
<svg xmlns="http://www.w3.org/2000/svg" xmlns:xlink="http://www.w3.org/1999/xlink" width="24pt" height="24pt" viewBox="0 0 24 24" version="1.1">
<g id="surface1">
<path style=" stroke:none;fill-rule:nonzero;fill:rgb(100%,100%,100%);fill-opacity:1;" d="M 9.125 15.171875 L 7.984375 16.519531 C 7.875 16.675781 7.675781 16.882812 7.566406 17.109375 C 7.175781 17.929688 7.730469 18.519531 8.34375 18.84375 C 9.144531 19.269531 10.144531 19.347656 10.535156 18.527344 L 10.851562 17.976562 C 11.890625 18.324219 12.984375 18.519531 14.121094 18.519531 C 17.671875 18.519531 20.863281 16.667969 23.09375 13.722656 C 23.28125 13.476562 23.28125 13.121094 23.097656 12.875 C 20.925781 10.011719 17.847656 8.199219 14.417969 8.097656 C 14.414062 8.09375 14.425781 8.089844 14.417969 8.082031 C 13.085938 7.003906 8.582031 5.347656 9.019531 7.132812 C 9.191406 7.820312 9.3125 8.527344 9.378906 9.253906 C 8.550781 9.679688 7.773438 10.210938 7.050781 10.835938 L 7.050781 10.828125 C 6.632812 11.175781 6.058594 11.179688 5.632812 10.835938 C 4.300781 9.753906 1.878906 8.296875 2.316406 10.082031 C 2.570312 11.113281 2.730469 12.1875 2.730469 13.316406 C 2.730469 14.445312 2.570312 15.523438 2.316406 16.554688 C 2.253906 16.804688 2.328125 17.070312 2.5 17.242188 C 3.035156 17.78125 5.046875 16.265625 5.632812 15.792969 C 6.058594 15.449219 6.628906 15.453125 7.050781 15.800781 C 7.15625 15.890625 7.253906 15.972656 7.363281 16.058594 C 7.363281 16.054688 7.914062 15.988281 9.125 15.171875 Z M 15.191406 11.148438 C 14.75 13.121094 15.054688 14.867188 16.058594 16.375 C 16.082031 16.410156 16.089844 16.453125 16.105469 16.492188 C 13.445312 15.382812 13.882812 12.601562 15.191406 11.148438 Z M 18.859375 13.609375 C 18.28125 13.609375 17.816406 13.140625 17.816406 12.5625 C 17.816406 11.988281 18.28125 11.519531 18.859375 11.519531 C 19.4375 11.519531 19.902344 11.988281 19.902344 12.5625 C 19.902344 13.140625 19.4375 13.609375 18.859375 13.609375 Z M 18.859375 13.609375 "/>
</g>
</svg>
