<?xml version="1.0" encoding="UTF-8"?>
<svg xmlns="http://www.w3.org/2000/svg" xmlns:xlink="http://www.w3.org/1999/xlink" width="24pt" height="24pt" viewBox="0 0 24 24" version="1.1">
<g id="surface1">
<path style="fill:none;stroke-width:2.0355;stroke-linecap:round;stroke-linejoin:round;stroke:rgb(100%,100%,100%);stroke-opacity:1;stroke-miterlimit:10;" d="M 23.697917 26.302083 L 30.403646 29.296875 L 34.195964 63.102214 L 75.895182 63.102214 L 75.895182 41.601562 L 31.005859 35.107422 " transform="matrix(0.24,0,0,0.24,0,0)"/>
<path style=" stroke:none;fill-rule:nonzero;fill:rgb(100%,100%,100%);fill-opacity:1;" d="M 17.59375 18.289062 C 17.59375 17.824219 17.195312 17.449219 16.703125 17.449219 C 16.214844 17.449219 15.816406 17.824219 15.816406 18.289062 C 15.816406 18.75 16.214844 19.128906 16.703125 19.128906 C 17.195312 19.128906 17.59375 18.75 17.59375 18.289062 Z M 17.59375 18.289062 "/>
<path style=" stroke:none;fill-rule:nonzero;fill:rgb(100%,100%,100%);fill-opacity:1;" d="M 10.175781 18.289062 C 10.175781 17.824219 9.777344 17.449219 9.289062 17.449219 C 8.796875 17.449219 8.398438 17.824219 8.398438 18.289062 C 8.398438 18.75 8.796875 19.128906 9.289062 19.128906 C 9.777344 19.128906 10.175781 18.75 10.175781 18.289062 Z M 10.175781 18.289062 "/>
<path style="fill:none;stroke-width:2.0355;stroke-linecap:round;stroke-linejoin:round;stroke:rgb(100%,100%,100%);stroke-opacity:1;stroke-miterlimit:10;" d="M 34.195964 63.102214 L 34.602865 67.10612 L 30.501302 72.705078 L 75.895182 72.705078 " transform="matrix(0.24,0,0,0.24,0,0)"/>
<path style=" stroke:none;fill-rule:nonzero;fill:rgb(100%,100%,100%);fill-opacity:1;" d="M 12.960938 11.617188 C 12.023438 11.089844 11.113281 10.464844 10.128906 10.007812 C 9.671875 9.792969 9.167969 10.34375 9.574219 10.726562 C 10.007812 11.136719 10.464844 11.449219 10.921875 11.808594 C 11.0625 11.542969 11.230469 11.28125 11.375 11.015625 C 10.679688 10.679688 9.9375 10.320312 9.335938 9.839844 C 8.902344 9.503906 8.734375 9.046875 8.351562 8.710938 C 8.207031 8.976562 8.0625 9.214844 7.894531 9.480469 C 8.6875 9.769531 9.742188 9.625 10.585938 9.742188 C 11.328125 9.863281 12.070312 9.960938 12.816406 10.078125 C 14.398438 10.296875 16.03125 10.679688 17.640625 10.824219 C 17.496094 10.703125 17.351562 10.609375 17.207031 10.488281 C 17.28125 10.703125 17.136719 11.351562 17.136719 11.617188 C 17.136719 12 17.160156 12.359375 17.160156 12.742188 C 17.183594 13.367188 17.257812 14.015625 17.257812 14.617188 C 17.375 14.472656 17.472656 14.328125 17.59375 14.183594 C 16.894531 14.375 15.863281 14.207031 15.144531 14.207031 C 14.449219 14.207031 13.753906 14.160156 13.078125 14.160156 C 11.640625 14.160156 10.199219 14.351562 8.761719 14.304688 C 8.902344 14.425781 9.046875 14.519531 9.191406 14.640625 C 8.929688 13.992188 9 12.792969 8.929688 12.097656 C 8.878906 11.664062 8.832031 11.207031 8.785156 10.777344 C 8.785156 10.726562 8.761719 10.054688 8.6875 9.960938 C 8.664062 9.839844 8.640625 9.769531 8.640625 9.695312 C 8.449219 9.984375 8.472656 10.128906 8.761719 10.105469 C 9.046875 10.320312 9.863281 10.296875 10.246094 10.34375 C 11.113281 10.464844 11.929688 10.585938 12.769531 10.824219 C 14.113281 11.183594 15.480469 11.375 16.847656 11.640625 C 16.992188 11.664062 17.183594 11.640625 17.304688 11.519531 C 17.425781 11.398438 17.472656 11.28125 17.519531 11.113281 C 17.59375 10.871094 17.449219 10.632812 17.207031 10.558594 C 16.535156 10.34375 15.769531 10.296875 15.046875 10.105469 C 14.496094 9.960938 13.609375 9.695312 13.054688 9.886719 C 12.167969 10.222656 11.902344 12.503906 12.3125 13.246094 C 12.503906 13.585938 12.742188 13.632812 13.105469 13.703125 C 13.921875 13.894531 14.878906 13.921875 15.742188 13.945312 C 16.296875 13.96875 16.777344 14.015625 17.160156 13.585938 C 17.496094 13.175781 17.59375 12.40625 17.472656 11.902344 C 17.351562 11.425781 17.230469 11.304688 16.726562 11.230469 C 15.910156 11.113281 15.167969 11.183594 14.375 10.871094 C 13.921875 10.703125 13.414062 10.34375 12.960938 10.65625 C 12.550781 10.921875 12.40625 11.59375 12.40625 12.046875 C 12.382812 13.921875 17.855469 14.0625 16.800781 11.976562 C 16.726562 11.832031 16.558594 11.761719 16.414062 11.761719 C 15.792969 11.734375 15.335938 11.734375 14.734375 11.519531 C 14.207031 11.328125 13.753906 11.183594 13.199219 11.183594 C 12.816406 11.183594 12.671875 11.566406 12.816406 11.878906 C 13.199219 12.769531 14.59375 12.839844 15.40625 12.863281 C 15.886719 12.863281 15.984375 12.265625 15.648438 12 C 14.6875 11.304688 13.34375 11.089844 12.265625 10.609375 C 11.832031 10.414062 11.207031 9.984375 10.753906 9.910156 C 10.296875 9.863281 10.054688 10.199219 9.648438 10.320312 C 9.121094 10.414062 9.433594 10.320312 9.121094 10.296875 C 8.902344 10.296875 8.878906 10.175781 8.664062 10.222656 C 8.398438 10.273438 8.230469 10.464844 8.160156 10.703125 C 8.039062 11.0625 8.230469 11.59375 8.304688 11.929688 C 8.449219 12.648438 8.542969 13.367188 8.617188 14.089844 C 8.664062 14.566406 9.382812 14.734375 9.503906 14.207031 C 9.769531 13.199219 9.960938 12.191406 10.199219 11.183594 C 10.246094 10.921875 10.078125 10.558594 9.769531 10.609375 C 9.265625 10.65625 8.878906 10.894531 8.785156 11.398438 C 8.710938 11.878906 8.902344 12.457031 8.953125 12.910156 C 9 13.34375 8.976562 13.824219 9.070312 14.257812 C 9.167969 14.734375 9.816406 14.640625 9.960938 14.257812 C 10.296875 13.296875 10.535156 12.3125 10.824219 11.351562 C 10.632812 11.449219 10.441406 11.566406 10.273438 11.664062 C 10.777344 11.734375 11.496094 12.238281 11.929688 12.503906 C 12.046875 12.214844 12.167969 11.953125 12.289062 11.664062 C 11.566406 11.472656 11.015625 11.257812 10.246094 11.230469 C 9.9375 11.230469 9.648438 11.640625 9.863281 11.929688 C 10.320312 12.527344 11.0625 12.839844 11.710938 13.175781 C 11.832031 12.886719 11.953125 12.625 12.070312 12.335938 C 11.59375 12.167969 11.136719 11.929688 10.65625 11.734375 C 10.367188 11.617188 10.078125 11.902344 10.078125 12.167969 C 10.078125 12.769531 10.535156 13.679688 9.769531 13.992188 C 9.960938 14.089844 10.152344 14.207031 10.320312 14.304688 C 10.007812 13.34375 12.71875 14.015625 13.054688 14.113281 C 13.632812 14.257812 13.847656 13.414062 13.296875 13.222656 C 12.238281 12.910156 11.328125 12.960938 10.34375 13.441406 C 9.9375 13.632812 10.128906 14.304688 10.585938 14.304688 C 12.792969 14.207031 14.976562 14.496094 17.207031 14.496094 C 17.472656 14.496094 17.761719 14.207031 17.640625 13.921875 C 17.566406 13.726562 17.496094 13.585938 17.398438 13.414062 C 17.113281 12.910156 16.320312 13.367188 16.609375 13.871094 C 16.65625 13.96875 16.703125 14.0625 16.753906 14.160156 C 16.894531 13.96875 17.039062 13.777344 17.183594 13.585938 C 14.976562 13.585938 12.769531 13.296875 10.558594 13.390625 C 10.632812 13.679688 10.703125 13.96875 10.800781 14.257812 C 11.542969 13.894531 12.265625 13.894531 13.03125 14.160156 C 13.105469 13.871094 13.199219 13.558594 13.273438 13.273438 C 12.527344 13.078125 11.136719 12.550781 10.390625 12.9375 C 9.910156 13.175781 9.238281 14.015625 9.433594 14.59375 C 9.503906 14.808594 9.769531 15 9.984375 14.902344 C 11.425781 14.328125 10.96875 13.464844 10.96875 12.191406 C 10.777344 12.335938 10.585938 12.480469 10.390625 12.625 C 10.871094 12.816406 11.328125 13.054688 11.808594 13.222656 C 12.289062 13.390625 12.625 12.625 12.167969 12.382812 C 11.710938 12.144531 10.96875 11.878906 10.65625 11.449219 C 10.535156 11.6875 10.390625 11.902344 10.273438 12.144531 C 10.921875 12.167969 11.449219 12.382812 12.070312 12.550781 C 12.574219 12.695312 12.886719 11.976562 12.433594 11.710938 C 11.902344 11.398438 11.160156 10.871094 10.558594 10.777344 C 10.320312 10.726562 10.078125 10.847656 10.007812 11.089844 C 9.695312 12.046875 9.480469 13.03125 9.144531 13.992188 C 9.433594 13.992188 9.742188 13.992188 10.03125 13.992188 C 9.9375 13.609375 9.984375 13.152344 9.9375 12.742188 C 9.839844 12.480469 9.574219 11.542969 9.769531 11.519531 C 9.625 11.328125 9.480469 11.136719 9.335938 10.945312 C 9.121094 11.953125 8.902344 12.960938 8.640625 13.96875 C 8.929688 14.015625 9.238281 14.039062 9.527344 14.089844 C 9.457031 13.273438 9.40625 12.289062 9.144531 11.496094 C 8.976562 10.992188 9.167969 11.207031 8.761719 11.183594 C 8.785156 11.183594 8.929688 11.28125 8.953125 11.304688 C 9.167969 11.449219 9.695312 11.160156 9.839844 11.113281 C 10.34375 10.894531 10.414062 10.753906 10.945312 10.992188 C 11.328125 11.160156 11.710938 11.351562 12.097656 11.519531 C 13.054688 11.929688 14.230469 12.121094 15.070312 12.742188 C 15.144531 12.457031 15.214844 12.167969 15.3125 11.878906 C 14.808594 11.878906 13.777344 11.929688 13.511719 11.351562 C 13.390625 11.59375 13.246094 11.808594 13.128906 12.046875 C 13.96875 12.070312 14.664062 12.601562 15.503906 12.671875 C 14.976562 12.625 16.847656 12.71875 15.9375 12.382812 C 15.695312 12.289062 15.070312 12.480469 14.761719 12.457031 C 14.519531 12.433594 13.390625 12.289062 13.273438 12 C 13.320312 11.808594 13.34375 11.640625 13.390625 11.449219 C 13.535156 11.519531 13.65625 11.566406 13.800781 11.640625 C 14.207031 11.710938 14.566406 11.953125 14.976562 12.023438 C 15.3125 12.097656 15.671875 12.070312 16.03125 12.121094 C 16.34375 12.167969 16.96875 12.097656 16.511719 12.769531 C 16.222656 13.199219 15.382812 13.007812 14.976562 12.984375 C 14.328125 12.9375 13.246094 13.078125 13.078125 12.433594 C 12.960938 11.976562 13.078125 11.015625 13.535156 10.800781 C 13.847656 10.65625 14.425781 10.921875 14.761719 10.992188 C 15.457031 11.160156 16.246094 11.230469 16.921875 11.449219 C 16.824219 11.257812 16.703125 11.0625 16.609375 10.894531 C 17.039062 10.824219 17.136719 10.753906 16.894531 10.753906 C 16.511719 10.703125 16.152344 10.65625 15.792969 10.585938 C 15.382812 10.511719 14.976562 10.414062 14.566406 10.320312 C 13.632812 10.105469 12.742188 9.816406 11.808594 9.648438 C 11.089844 9.503906 10.34375 9.457031 9.601562 9.335938 C 9.191406 9.265625 8.425781 8.976562 8.015625 9.214844 C 7.390625 9.601562 7.945312 11.257812 8.015625 11.808594 C 8.136719 12.695312 8.015625 13.992188 8.351562 14.832031 C 8.425781 15.023438 8.566406 15.167969 8.785156 15.167969 C 10.246094 15.214844 11.734375 15.046875 13.199219 15.046875 C 14.039062 15.046875 14.902344 15.097656 15.742188 15.097656 C 16.390625 15.097656 17.207031 15.238281 17.855469 15.046875 C 18.046875 15 18.191406 14.808594 18.191406 14.617188 C 18.191406 13.921875 18.121094 13.199219 18.070312 12.480469 C 18.046875 11.808594 18.335938 10.871094 18.121094 10.246094 C 18.046875 10.03125 17.902344 9.9375 17.6875 9.910156 C 16.105469 9.792969 14.542969 9.359375 12.984375 9.167969 C 12.289062 9.070312 11.59375 8.976562 10.894531 8.878906 C 10.078125 8.761719 8.953125 8.878906 8.207031 8.617188 C 7.777344 8.449219 7.441406 9.070312 7.753906 9.382812 C 8.113281 9.71875 8.304688 10.199219 8.710938 10.558594 C 9.335938 11.089844 10.199219 11.496094 10.945312 11.855469 C 11.472656 12.097656 11.878906 11.398438 11.398438 11.0625 C 10.992188 10.777344 10.609375 10.488281 10.222656 10.128906 C 10.03125 10.367188 9.863281 10.609375 9.671875 10.847656 C 10.65625 11.304688 11.566406 11.929688 12.503906 12.457031 C 13.007812 12.695312 13.464844 11.902344 12.960938 11.617188 Z M 12.960938 11.617188 "/>
</g>
</svg>
