<?xml version="1.0" encoding="UTF-8"?>
<svg xmlns="http://www.w3.org/2000/svg" xmlns:xlink="http://www.w3.org/1999/xlink" width="24pt" height="24pt" viewBox="0 0 24 24" version="1.1">
<g id="surface1">
<path style=" stroke:none;fill-rule:nonzero;fill:rgb(100%,100%,100%);fill-opacity:1;" d="M 12 3.601562 C 11.851562 3.605469 11.675781 3.660156 11.558594 3.75 L 4.117188 9.511719 C 3.945312 9.644531 3.839844 9.859375 3.839844 10.078125 L 3.839844 19.679688 C 3.839844 20.058594 4.183594 20.398438 4.558594 20.398438 L 9.601562 20.398438 C 9.976562 20.398438 10.320312 20.058594 10.320312 19.679688 L 10.320312 16.320312 C 10.320312 15.375 11.058594 14.640625 12 14.640625 C 12.941406 14.640625 13.679688 15.375 13.679688 16.320312 L 13.679688 19.679688 C 13.679688 20.058594 14.023438 20.398438 14.398438 20.398438 L 19.441406 20.398438 C 19.816406 20.398438 20.160156 20.058594 20.160156 19.679688 L 20.160156 10.078125 C 20.160156 9.859375 20.054688 9.644531 19.882812 9.511719 L 12.441406 3.75 C 12.308594 3.648438 12.238281 3.613281 12 3.601562 Z M 12 5.226562 L 18.71875 10.425781 L 18.71875 18.960938 L 15.121094 18.960938 L 15.121094 16.320312 C 15.121094 14.605469 13.714844 13.199219 12 13.199219 C 10.285156 13.199219 8.878906 14.605469 8.878906 16.320312 L 8.878906 18.960938 L 5.28125 18.960938 L 5.28125 10.425781 Z M 12 5.226562 "/>
</g>
</svg>
