<?xml version="1.0" encoding="UTF-8"?>
<svg xmlns="http://www.w3.org/2000/svg" xmlns:xlink="http://www.w3.org/1999/xlink" width="24pt" height="24pt" viewBox="0 0 24 24" version="1.1">
<g id="surface1">
<path style=" stroke:none;fill-rule:nonzero;fill:rgb(100%,100%,100%);fill-opacity:1;" d="M 11.308594 21.011719 C 12.320312 20.90625 13.707031 21.253906 13.707031 21.253906 C 15.441406 22.214844 14.453125 22.878906 14.453125 22.878906 L 8.988281 22.878906 C 7.945312 22.960938 5.839844 22.132812 5.839844 22.132812 C 4.132812 23.464844 2.691406 22.375 2.691406 22.375 C 1.441406 21.09375 2.988281 19.734375 2.988281 19.734375 C 2.054688 15.546875 3.679688 13.121094 3.679688 13.121094 C 6.535156 8.265625 12.238281 10.398438 12.238281 10.398438 C 14.105469 10.878906 14.027344 9.652344 14.027344 9.652344 C 13.972656 9.441406 14.132812 8.800781 14.132812 8.800781 C 9.332031 8.746094 8 6.535156 8 6.535156 C 12.691406 5.171875 15.039062 7.039062 15.039062 7.039062 L 15.652344 6.558594 C 12.691406 4.613281 13.601562 0.398438 13.601562 0.398438 C 17.332031 2.347656 17.761719 6.160156 17.761719 6.160156 C 20.078125 6.585938 20.585938 8.027344 20.585938 8.027344 C 21.011719 8.746094 21.464844 9.199219 21.464844 9.199219 C 22.078125 9.785156 21.652344 10.054688 21.652344 10.054688 C 21.492188 11.253906 20.292969 11.546875 20.292969 11.546875 C 20.292969 11.546875 20.265625 11.546875 20.265625 11.574219 C 19.519531 12.027344 19.652344 13.011719 19.652344 13.011719 C 20.398438 16 16.851562 18.214844 16.851562 18.214844 C 16.960938 18.667969 16.613281 20.988281 16.613281 20.988281 C 16.558594 21.148438 16.640625 21.308594 16.640625 21.308594 C 16.878906 21.308594 17.359375 21.492188 17.359375 21.492188 C 18.054688 22.027344 17.601562 22.667969 17.601562 22.667969 C 16.878906 23.066406 15.707031 22.667969 15.707031 22.667969 C 14.773438 22.425781 14.1875 19.761719 14.1875 19.761719 C 13.761719 20.535156 11.308594 21.011719 11.308594 21.011719 Z M 19.894531 8.933594 C 20.054688 8.933594 20.1875 8.800781 20.1875 8.640625 C 20.1875 8.480469 20.054688 8.347656 19.894531 8.347656 C 19.734375 8.347656 19.601562 8.480469 19.601562 8.640625 C 19.601562 8.800781 19.734375 8.933594 19.894531 8.933594 Z M 19.894531 8.933594 "/>
</g>
</svg>
