<?xml version="1.0" encoding="UTF-8"?>
<svg xmlns="http://www.w3.org/2000/svg" xmlns:xlink="http://www.w3.org/1999/xlink" width="24pt" height="24pt" viewBox="0 0 24 24" version="1.1">
<g id="surface1">
<path style=" stroke:none;fill-rule:nonzero;fill:rgb(100%,100%,100%);fill-opacity:1;" d="M 9.460938 14.519531 L 9.457031 14.519531 C 8.988281 14.515625 8.519531 14.429688 8.078125 14.269531 C 5.332031 16.539062 2.816406 18.519531 1.972656 19.613281 C 1.15625 20.671875 0.914062 21.707031 1.601562 22.398438 C 2.292969 23.085938 3.328125 22.84375 4.386719 22.027344 C 5.691406 21.023438 8.246094 17.652344 11.054688 14.339844 C 11.027344 14.304688 10.996094 14.273438 10.964844 14.238281 C 10.484375 14.417969 9.972656 14.511719 9.460938 14.519531 Z M 9.460938 14.519531 "/>
<path style=" stroke:none;fill-rule:nonzero;fill:rgb(100%,100%,100%);fill-opacity:1;" d="M 12.828125 9.824219 L 14.175781 11.175781 C 14.214844 11.179688 14.257812 11.191406 14.292969 11.207031 C 15.476562 11.753906 16.878906 11.488281 17.78125 10.550781 L 22.625 5.507812 C 22.84375 5.289062 22.859375 4.945312 22.664062 4.707031 C 22.558594 4.582031 22.40625 4.507812 22.242188 4.5 C 22.078125 4.492188 21.917969 4.554688 21.804688 4.667969 L 17.410156 9.058594 C 17.199219 9.28125 16.855469 9.308594 16.609375 9.125 C 16.480469 9.019531 16.402344 8.867188 16.394531 8.703125 C 16.386719 8.539062 16.449219 8.375 16.566406 8.261719 L 20.957031 3.871094 C 21.179688 3.65625 21.207031 3.3125 21.019531 3.066406 C 20.917969 2.941406 20.761719 2.863281 20.597656 2.855469 C 20.433594 2.84375 20.273438 2.90625 20.15625 3.023438 L 15.765625 7.414062 C 15.554688 7.636719 15.207031 7.664062 14.964844 7.476562 C 14.835938 7.375 14.757812 7.222656 14.75 7.054688 C 14.742188 6.890625 14.800781 6.730469 14.917969 6.613281 L 19.320312 2.214844 C 19.539062 2 19.5625 1.65625 19.371094 1.417969 C 19.265625 1.289062 19.117188 1.210938 18.953125 1.203125 C 18.789062 1.191406 18.628906 1.25 18.511719 1.359375 L 13.453125 6.222656 C 12.511719 7.125 12.246094 8.523438 12.792969 9.707031 C 12.808594 9.746094 12.820312 9.785156 12.828125 9.824219 Z M 12.828125 9.824219 "/>
<path style=" stroke:none;fill-rule:nonzero;fill:rgb(100%,100%,100%);fill-opacity:1;" d="M 22.378906 20.746094 L 3.320312 1.664062 C 2.464844 0.804688 1.226562 1.140625 1.199219 2.671875 C 1.164062 4.832031 2.082031 7.65625 5.074219 10.847656 C 6.304688 12.160156 6.925781 12.640625 7.835938 13.117188 C 8.734375 13.636719 9.824219 13.699219 10.773438 13.289062 C 11.085938 13.164062 11.445312 13.273438 11.636719 13.546875 C 16.332031 18.867188 18.496094 20.945312 20.378906 22.308594 C 22.261719 23.679688 23.488281 21.863281 22.378906 20.746094 Z M 22.378906 20.746094 "/>
</g>
</svg>
