<?xml version="1.0" encoding="UTF-8"?>
<svg xmlns="http://www.w3.org/2000/svg" xmlns:xlink="http://www.w3.org/1999/xlink" width="24pt" height="16pt" viewBox="0 0 24 16" version="1.1">
<g id="surface1">
<path style=" stroke:none;fill-rule:nonzero;fill:rgb(100%,100%,100%);fill-opacity:1;" d="M 23.949219 7.699219 C 23.945312 7.582031 23.90625 7.46875 23.839844 7.375 L 20.160156 2.15625 C 20.039062 1.984375 19.835938 1.882812 19.617188 1.882812 L 14.644531 1.882812 C 14.285156 1.882812 13.992188 2.160156 13.992188 2.5 L 13.992188 12.558594 C 13.992188 12.898438 14.285156 13.175781 14.644531 13.175781 L 15.984375 13.175781 C 15.984375 14.734375 17.320312 16 18.96875 16 C 20.621094 16 21.957031 14.734375 21.957031 13.175781 L 23.296875 13.175781 C 23.65625 13.175781 23.949219 12.898438 23.949219 12.558594 L 23.949219 7.714844 C 23.949219 7.710938 23.949219 7.703125 23.949219 7.699219 Z M 16.980469 7.53125 L 16.980469 3.765625 L 19.5 3.765625 L 22.15625 7.53125 Z M 18.96875 14.589844 C 18.148438 14.589844 17.476562 13.953125 17.476562 13.175781 C 17.476562 12.398438 18.148438 11.765625 18.96875 11.765625 C 19.792969 11.765625 20.464844 12.398438 20.464844 13.175781 C 20.464844 13.953125 19.792969 14.589844 18.96875 14.589844 Z M 12.128906 0 L 0.917969 0 C 0.4375 0 0.0507812 0.367188 0.0507812 0.820312 L 0.0507812 12.355469 C 0.0507812 12.808594 0.4375 13.175781 0.917969 13.175781 L 3.039062 13.175781 C 3.039062 14.734375 4.375 16 6.023438 16 C 7.675781 16 9.011719 14.734375 9.011719 13.175781 L 12.128906 13.175781 C 12.605469 13.175781 12.996094 12.808594 12.996094 12.355469 L 12.996094 0.820312 C 12.996094 0.367188 12.609375 0 12.128906 0 Z M 6.023438 14.589844 C 5.203125 14.589844 4.53125 13.953125 4.53125 13.175781 C 4.53125 12.398438 5.203125 11.765625 6.023438 11.765625 C 6.847656 11.765625 7.519531 12.398438 7.519531 13.175781 C 7.519531 13.953125 6.847656 14.589844 6.023438 14.589844 Z M 6.023438 14.589844 "/>
</g>
</svg>
